# xmcd
#
# Track frame offsets: 
#        150
#        19222
#        36702
#        56771
#        75851
#        91211
#        103482
#        124069
#        142367
#        156633
#        175406
#        196433
#        214902
#        229942
#
# Disc length: 3318 seconds
#
# Revision: 0
# Processed by: cddbd v1.5.2PL0 Copyright (c) Steve Scherf et al.
# Submitted via: ExactAudioCopyFreeDBPlugin 1.0
#
DISCID=d80cf40e
DTITLE=許樂 and 青燕子 - 聆極物語 CD3
DYEAR=1900
DGENRE=中文流行曲
TTITLE0=真摯
TTITLE1=約定
TTITLE2=野百合也有春天
TTITLE3=矜持
TTITLE4=用心良苦
TTITLE5=請到天涯海角來
TTITLE6=星語心願
TTITLE7=獨角戲
TTITLE8=今宵多珍重
TTITLE9=爸爸的草鞋
TTITLE10=明天會更好
TTITLE11=忘了我是誰
TTITLE12=鄉間的小路
TTITLE13=把悲傷留給自己
EXTD=
EXTT0=
EXTT1=
EXTT2=
EXTT3=
EXTT4=
EXTT5=
EXTT6=
EXTT7=
EXTT8=
EXTT9=
EXTT10=
EXTT11=
EXTT12=
EXTT13=
PLAYORDER=
